<?xml version="1.0" encoding="UTF-8"?>
<svg version="1.1" viewBox="0 0 500 500" xmlns="http://www.w3.org/2000/svg">
 <path d="m247.01 177.7c-27.139-31.379-51.734-87.353-59.366-69.543-7.6328 17.81-5.9366 44.949-4.2405 50.885 1.6962 5.9366-80.569-17.81-84.809-9.329-4.2405 8.4809-8.4809 37.316 2.5443 66.151 11.025 28.835 3.3924 75.48 3.3924 86.505s-2.5443 62.759-2.5443 62.759 39.012-27.139 48.341-27.987c9.329-0.84809 25.443 20.354 37.316 31.379s21.202 37.316 39.012 33.924c17.81-3.3924 18.658-36.468 39.012-51.734s60.214 16.114 60.214 16.114 16.962-66.151 23.747-77.176c6.7847-11.025 33.924-18.658 42.405-33.924 8.4809-15.266 26.291-57.67 29.683-65.303s-30.531-2.5443-53.43-12.721c-22.898-10.177-44.101-50.885-48.341-61.911-4.2405-11.025-25.443-20.354-36.468-5.9366-11.025 14.418-36.468 67.847-36.468 67.847z" fill="#c8c8c8"/>
 <path d="m133.37 229.44s-29.067-84.998 5.9366-100.92c15.665-7.1267 18.658 11.873 29.683 20.354 11.025 8.4809 53.43-16.962 53.43-16.962l22.898-46.645s24.595 5.0885 33.924 33.924c9.329 28.835 30.531 40.708 55.126 39.86 24.595-0.8481 57.67 13.569 60.214 20.354 2.5443 6.7847-33.924 28.835-30.531 42.405 3.3924 13.569 43.253 89.898 43.253 89.898s-63.607-12.721-70.392-7.6328c-6.7847 5.0885 15.266 64.455 15.266 64.455s-16.962-9.329-27.987-9.329-37.316 23.747-41.556 29.683c-4.2405 5.9366-54.278-1.6962-54.278-1.6962s-53.43 20.354-67.847 21.202c-14.418 0.8481-22.898-53.43-21.202-63.607 1.6962-10.177-40.708-50.037-50.037-60.214s-23.261-89.509 8.4809-99.227c18.069-5.5314 35.62 44.101 35.62 44.101z" fill="#ddd"/>
 <path d="m90.1 324.76c28.438-5.851 49.381-49.362 49.381-49.362s11.148 60.329 23.704 67.761c12.556 7.4322 28.002 68.243 38.577 72.441 10.576 4.1977 47.837-47.527 47.837-47.527l48.409 8.6045s14.456-19.97 19.062-35.688c4.6066-15.718 34.444-25.094 34.444-25.094s-36.606-19.834-54.205-16.618 13.974-15.673 13.974-15.673 37.374-9.9449 53.615-19.934c21.964-13.509 53.706-38.668 56.768-52.551s-84.424 8.1129-98.716 10.193c-14.292 2.0805-13.719-20.952-7.9043-32.518 5.8149-11.566 10.558-55.386 15.746-64.345 5.188-8.9585-50.852-27.121-55.95-36.897-5.097-9.7763-24.359 3.7976-30.392 12.829-6.033 9.0312-27.157 10.848-40.05 9.4034-12.893-1.4447-27.911-7.8139-30.683 9.4489s0.85384 29.719-12.52 32.572c-13.374 2.8528-42.031 6.1689-42.921 15.609-0.89047 9.44-3.7799 35.225-8.341 41.576-4.5611 6.3509-19.017 26.321-22.996 39.432-3.9796 13.111-9.7585 64.681-7.7052 68.761 2.0533 4.0795 4.1794 9.004 10.866 7.5776z" fill="#f8f8f8"/>
 <rect width="500" height="500" fill-opacity="0"/>
</svg>
